<svg xmlns="http://www.w3.org/2000/svg" width="20.49" height="22.542" viewBox="0 0 20.49 22.542">
  <g id="bell-icon" transform="translate(1.001 1)">
    <path id="Path_5" data-name="Path 5" d="M22.038,19.409H4.313a1,1,0,0,1-.725-.311c-.2-.215-1.174-1.425-.22-4.169A9.025,9.025,0,0,1,4.614,12.82,6.69,6.69,0,0,0,6.267,9.164,7.047,7.047,0,0,1,13.176,2a7.047,7.047,0,0,1,6.908,7.164,7.044,7.044,0,0,0,1.863,4.144,7.5,7.5,0,0,1,1.018,1.573c1.146,2.836-.095,4.119-.24,4.256A1,1,0,0,1,22.038,19.409Zm-17.06-2H21.419a3.265,3.265,0,0,0-.308-1.777,6.8,6.8,0,0,0-.757-1.115,8.776,8.776,0,0,1-2.27-5.353A5.047,5.047,0,0,0,13.176,4,5.047,5.047,0,0,0,8.267,9.164,8.421,8.421,0,0,1,6.244,13.98a7.885,7.885,0,0,0-.986,1.608A3.957,3.957,0,0,0,4.978,17.409Z" transform="translate(-3.957 -3)" fill="#6e6e6e"/>
    <path id="Path_6" data-name="Path 6" d="M17.092,33.524a2.94,2.94,0,0,1-2.563-1.541,1,1,0,1,1,1.752-.965.9.9,0,0,0,1.622,0,1,1,0,1,1,1.752.965A2.94,2.94,0,0,1,17.092,33.524Z" transform="translate(-7.873 -11.982)" fill="#6e6e6e"/>
  </g>
</svg>
