<svg xmlns="http://www.w3.org/2000/svg" width="25" height="25" viewBox="0 0 25 25">
  <g id="Icon_feather-grid" data-name="Icon feather-grid" transform="translate(-3.5 -3.5)">
    <path id="Path_20" data-name="Path 20" d="M4.5,3.5h8.944a1,1,0,0,1,1,1v8.944a1,1,0,0,1-1,1H4.5a1,1,0,0,1-1-1V4.5A1,1,0,0,1,4.5,3.5Zm7.944,2H5.5v6.944h6.944Z" fill="#6e6e6e"/>
    <path id="Path_21" data-name="Path 21" d="M21,3.5h8.944a1,1,0,0,1,1,1v8.944a1,1,0,0,1-1,1H21a1,1,0,0,1-1-1V4.5A1,1,0,0,1,21,3.5Zm7.944,2H22v6.944h6.944Z" transform="translate(-2.444)" fill="#6e6e6e"/>
    <path id="Path_22" data-name="Path 22" d="M21,20h8.944a1,1,0,0,1,1,1v8.944a1,1,0,0,1-1,1H21a1,1,0,0,1-1-1V21A1,1,0,0,1,21,20Zm7.944,2H22v6.944h6.944Z" transform="translate(-2.444 -2.444)" fill="#6e6e6e"/>
    <path id="Path_23" data-name="Path 23" d="M4.5,20h8.944a1,1,0,0,1,1,1v8.944a1,1,0,0,1-1,1H4.5a1,1,0,0,1-1-1V21A1,1,0,0,1,4.5,20Zm7.944,2H5.5v6.944h6.944Z" transform="translate(0 -2.444)" fill="#6e6e6e"/>
  </g>
</svg>
