<svg xmlns="http://www.w3.org/2000/svg" width="24" height="26" viewBox="0 0 24 26">
  <g id="profile" transform="translate(-193.033 -142.772)">
    <path id="Rectangle_4" data-name="Rectangle 4" d="M5,2A3,3,0,0,0,2,5V6A3,3,0,0,0,5,9H19a3,3,0,0,0,3-3V5a3,3,0,0,0-3-3H5M5,0H19a5,5,0,0,1,5,5V6a5,5,0,0,1-5,5H5A5,5,0,0,1,0,6V5A5,5,0,0,1,5,0Z" transform="translate(193.033 157.772)" fill="#6e6e6e"/>
    <path id="Ellipse_8" data-name="Ellipse 8" d="M6,2a4,4,0,1,0,4,4A4,4,0,0,0,6,2M6,0A6,6,0,1,1,0,6,6,6,0,0,1,6,0Z" transform="translate(199.033 142.772)" fill="#6e6e6e"/>
  </g>
</svg>
