<svg xmlns="http://www.w3.org/2000/svg" width="21.569" height="21.569" viewBox="0 0 21.569 21.569">
  <g id="search-icon" transform="translate(-3.5 -3.5)">
    <path id="Path_3" data-name="Path 3" d="M13.2,3.5a9.7,9.7,0,1,1-9.7,9.7A9.708,9.708,0,0,1,13.2,3.5Zm0,17.395a7.7,7.7,0,1,0-7.7-7.7A7.706,7.706,0,0,0,13.2,20.895Z" fill="#6e6e6e"/>
    <path id="Path_4" data-name="Path 4" d="M29.7,30.7A1,1,0,0,1,29,30.411l-4.729-4.729a1,1,0,1,1,1.414-1.414L30.411,29A1,1,0,0,1,29.7,30.7Z" transform="translate(-5.635 -5.635)" fill="#6e6e6e"/>
  </g>
</svg>
